<?xml version="1.0" encoding="utf-8"?>
<!-- Generator: Adobe Illustrator 25.4.1, SVG Export Plug-In . SVG Version: 6.00 Build 0)  -->
<svg version="1.1" id="Layer_1" xmlns="http://www.w3.org/2000/svg" xmlns:xlink="http://www.w3.org/1999/xlink" x="0px" y="0px"
	 viewBox="0 0 63.8 24.4" style="enable-background:new 0 0 63.8 24.4;" xml:space="preserve">
<style type="text/css">
	.st0{fill:#FFFFFF;}
	.st1{fill:none;stroke:#FFFFFF;stroke-width:0.8191;stroke-miterlimit:10;}
	.st2{fill:none;stroke:#FFFFFF;stroke-width:0.7825;stroke-miterlimit:10;}
	.st3{fill:none;stroke:#FFFFFF;stroke-width:0.7442;stroke-miterlimit:10;}
	.st4{fill:none;stroke:#FFFFFF;stroke-width:0.7349;stroke-miterlimit:10;}
	.st5{fill:none;stroke:#FFFFFF;stroke-width:1.1407;stroke-miterlimit:10;}
</style>
<path class="st0" d="M42,15.2h18.4c0.3,0,0.4-0.3,0.4-0.4c0-0.1,0.1-0.4-0.2-0.5L44.9,4c0.1-0.3,0.1-0.6,0.2-1L61,13.5
	c0.5,0.3,0.7,1,0.6,1.6c-0.1,0.7-0.6,1.1-1.1,1.1H41.8C41.9,15.9,42,15.5,42,15.2z"/>
<path class="st1" d="M57.4,11.3l-2.9,3.5c-0.5,0.6-1.3,0.4-1.6-0.5l-2.3-6.8c-0.3-0.8-1.1-1-1.5-0.2l-4,7.1
	c-0.4,0.8-1.3,0.7-1.7-0.1l-0.8-1.9"/>
<path class="st1" d="M6,11.3l2.9,3.5c0.5,0.6,1.3,0.4,1.6-0.5l2.3-6.8c0.3-0.8,1.1-1,1.5-0.2l4,7.1c0.4,0.8,1.3,0.7,1.7-0.1l0.8-1.9
	"/>
<path class="st2" d="M44.9,4.3l-3.1,11c-0.1,0.5-0.5,0.9-1,0.9H22.5c-0.4,0-0.8-0.4-1-0.9l-3-11c-0.2-0.8,0.3-1.7,1-1.7H44
	C44.7,2.6,45.2,3.5,44.9,4.3z"/>
<path class="st0" d="M42.1,20.5v1.5c0,0.1,0.1,0.2,0.3,0.2c0.2,0,0.3-0.1,0.3-0.2v-1.5H42.1z"/>
<path class="st3" d="M54.6,17.9h5.1c0.4,0,0.7-0.3,0.7-0.7v-0.3c0-0.4-0.3-0.7-0.7-0.7h-5.1c-0.4,0-0.7,0.3-0.7,0.7v0.3
	C53.9,17.6,54.2,17.9,54.6,17.9z"/>
<line class="st2" x1="40" y1="6.9" x2="23.3" y2="6.9"/>
<path class="st4" d="M41.7,16.7l1.1,2.5c0.2,0.6-0.1,1.3-0.7,1.3H21.5c-0.6,0-1-0.7-0.7-1.3l1.3-2.6c0.1-0.3,0.4-0.4,0.7-0.4
	L41,16.2C41.3,16.2,41.5,16.4,41.7,16.7z"/>
<g>
	<path class="st0" d="M19.2,16.2h2.5c-0.1-0.3-0.1-0.6-0.2-1h-3C18.8,15.5,19,15.8,19.2,16.2z"/>
	<path class="st0" d="M5.1,15.2h-2c-0.3,0-0.4-0.3-0.4-0.4c0-0.1-0.1-0.4,0.2-0.5L18.6,4c-0.1-0.3-0.1-0.6-0.2-1L2.5,13.5
		c-0.5,0.3-0.7,1-0.6,1.6c0.1,0.7,0.6,1.1,1.1,1.1h1.3C4.5,15.8,4.8,15.5,5.1,15.2z"/>
	<path class="st0" d="M13.7,15.2H9.9c0.3,0.3,0.5,0.6,0.7,1H13C13.2,15.8,13.4,15.5,13.7,15.2z"/>
</g>
<circle class="st5" cx="7.5" cy="18.3" r="3.5"/>
<circle class="st5" cx="16.1" cy="18.3" r="3.5"/>
<g>
	<path class="st0" d="M26.1,10.1h-0.5V9.3H27v3.6h-0.9V10.1z"/>
	<path class="st0" d="M30.2,12.2c0.8-0.6,1.6-1.2,1.6-1.8c0-0.3-0.1-0.4-0.4-0.4c-0.2,0-0.4,0.2-0.4,0.5h-0.8c0-0.9,0.6-1.2,1.2-1.2
		c0.8,0,1.2,0.5,1.2,1.1c0,0.8-0.7,1.4-1.3,1.8h1.3v0.7h-2.5V12.2z"/>
	<path class="st0" d="M36.4,9.2c0.8,0,1.2,0.4,1.2,1c0,0.5-0.3,0.7-0.5,0.8v0c0.4,0.1,0.6,0.4,0.6,0.9c0,0.6-0.4,1-1.2,1
		c-0.7,0-1.3-0.4-1.3-1.2H36c0,0.3,0.2,0.5,0.5,0.5c0.3,0,0.4-0.2,0.4-0.4c0-0.3-0.2-0.4-0.6-0.4h-0.2v-0.7h0.2
		c0.3,0,0.6-0.1,0.6-0.4c0-0.2-0.1-0.4-0.4-0.4c-0.3,0-0.4,0.2-0.4,0.4h-0.8C35.3,9.6,35.7,9.2,36.4,9.2z"/>
</g>
</svg>
