<?xml version="1.0" encoding="utf-8"?>
<!-- Generator: Adobe Illustrator 25.4.1, SVG Export Plug-In . SVG Version: 6.00 Build 0)  -->
<svg version="1.1" id="Layer_1" xmlns="http://www.w3.org/2000/svg" xmlns:xlink="http://www.w3.org/1999/xlink" x="0px" y="0px"
	 viewBox="0 0 63.8 24.4" style="enable-background:new 0 0 63.8 24.4;" xml:space="preserve">
<style type="text/css">
	.st0{fill:#FFFFFF;}
	.st1{fill:none;stroke:#FFFFFF;stroke-width:0.8885;stroke-miterlimit:10;}
	.st2{fill:none;stroke:#FFFFFF;stroke-width:1.0622;stroke-miterlimit:10;}
</style>
<g>
	<g>
		<path class="st0" d="M10.6,15.3c14.5,0.1,29,0.2,43.5,0.2c0.6,0,0.6-0.9,0-0.9c-14.5-0.1-29-0.2-43.5-0.2
			C10,14.4,10,15.3,10.6,15.3L10.6,15.3z"/>
	</g>
</g>
<g>
	<g>
		<path class="st0" d="M10.5,7.8c1,0,1.9,0,2.9,0c0.7,0,0.7-1,0-1c-1,0-1.9,0-2.9,0C9.8,6.8,9.8,7.8,10.5,7.8L10.5,7.8z"/>
	</g>
</g>
<g>
	<g>
		<path class="st0" d="M10.5,10.7c1,0,1.9,0,2.9,0c0.7,0,0.7-1,0-1c-1,0-1.9,0-2.9,0C9.8,9.6,9.8,10.7,10.5,10.7L10.5,10.7z"/>
	</g>
</g>
<path class="st1" d="M53,13.8H13c-1.6,0-3-1.3-3-3V3.4c0-0.3,0.2-0.5,0.5-0.5h39.7c0.1,0,0.2-0.1,0.2-0.2l0-0.4
	c0-0.1,0.1-0.2,0.2-0.2l3.5-0.1c0.1,0,0.2,0.1,0.2,0.2v10.1C54.5,13.1,53.8,13.8,53,13.8z"/>
<circle class="st2" cx="23.8" cy="19.2" r="3.3"/>
<circle class="st2" cx="15.9" cy="19.2" r="3.3"/>
<g>
	<g>
		<path class="st0" d="M51.7,15.3c0,2.1,0,4.2,0,6.2c0,0.8,1.2,0.8,1.2,0c0-2.1,0-4.2,0-6.2C53,14.5,51.7,14.5,51.7,15.3L51.7,15.3z
			"/>
	</g>
</g>
<g>
	<path class="st0" d="M26.8,7.6h-0.5V6.7h1.5v4h-1V7.6z"/>
	<path class="st0" d="M31.4,9.9c0.8-0.7,1.7-1.4,1.7-2.1c0-0.3-0.1-0.5-0.4-0.5c-0.3,0-0.4,0.2-0.4,0.6h-0.9c0-1,0.7-1.4,1.4-1.4
		c0.9,0,1.3,0.5,1.3,1.2c0,0.9-0.8,1.6-1.4,2.1h1.5v0.8h-2.7V9.9z"/>
	<path class="st0" d="M38.3,6.6c0.8,0,1.3,0.5,1.3,1.1c0,0.5-0.3,0.8-0.6,0.9v0c0.4,0.1,0.7,0.4,0.7,1c0,0.7-0.5,1.2-1.3,1.2
		c-0.8,0-1.4-0.4-1.5-1.3h0.9c0,0.3,0.2,0.5,0.5,0.5c0.3,0,0.4-0.2,0.4-0.4c0-0.4-0.2-0.5-0.7-0.5h-0.2V8.2h0.2
		c0.3,0,0.6-0.1,0.6-0.4c0-0.3-0.2-0.4-0.4-0.4c-0.3,0-0.4,0.2-0.4,0.4H37C37,7,37.5,6.6,38.3,6.6z"/>
</g>
</svg>
