<?xml version="1.0" encoding="utf-8"?>
<!-- Generator: Adobe Illustrator 25.4.1, SVG Export Plug-In . SVG Version: 6.00 Build 0)  -->
<svg version="1.1" id="Layer_1" xmlns="http://www.w3.org/2000/svg" xmlns:xlink="http://www.w3.org/1999/xlink" x="0px" y="0px"
	 viewBox="0 0 63.8 24.4" style="enable-background:new 0 0 63.8 24.4;" xml:space="preserve">
<style type="text/css">
	.st0{fill:#FFFFFF;}
	.st1{fill:none;stroke:#FFFFFF;stroke-width:1.1287;stroke-miterlimit:10;}
</style>
<g>
	<g>
		<path class="st0" d="M48.1,12.6c0,2.2,0,4.4,0,6.7c0,0.8,1.3,0.8,1.3,0c0-2.2,0-4.4,0-6.7C49.4,11.7,48.1,11.7,48.1,12.6
			L48.1,12.6z"/>
	</g>
</g>
<ellipse class="st1" cx="18.8" cy="17.2" rx="3.5" ry="3.5"/>
<ellipse class="st1" cx="10.4" cy="17.2" rx="3.5" ry="3.5"/>
<path class="st0" d="M51.5,12.6h-0.1c-0.4,0-0.7-0.3-0.7-0.7v-4c0-0.4,0.3-0.7,0.7-0.7h0.1c0.4,0,0.7,0.3,0.7,0.7v4
	C52.2,12.2,51.9,12.6,51.5,12.6z"/>
<path class="st0" d="M50.7,7.6L50.7,7.6C50.7,7.3,51,7,51.3,7H60c0.3,0,0.6,0.3,0.6,0.6v0c0,0.3-0.3,0.6-0.6,0.6h-8.8
	C51,8.2,50.7,7.9,50.7,7.6z"/>
<path class="st0" d="M51.5,11.7c-12.9-0.1-25.8-0.1-38.7-0.2c-1.8,0-3.6,0-5.5,0c-0.1,0-0.2,0-0.3,0.1c0,0-0.1,0.1-0.1,0.1
	c-1.6,1.8-3.2,3.6-4.8,5.3c-0.4,0.4,0.2,1.1,0.6,0.6c1.6-1.7,3.2-3.5,4.7-5.2c12.8,0.1,25.7,0.1,38.5,0.2c1.8,0,3.6,0,5.5,0
	C52.1,12.6,52.1,11.7,51.5,11.7z"/>
<g>
	<path class="st0" d="M24,5.2h-0.6V4.3H25v4.2h-1V5.2z"/>
	<path class="st0" d="M28.9,7.7c0.9-0.7,1.9-1.5,1.9-2.2c0-0.3-0.1-0.5-0.4-0.5c-0.3,0-0.5,0.2-0.5,0.6h-1c0-1,0.7-1.5,1.5-1.5
		c1,0,1.4,0.6,1.4,1.3c0,0.9-0.8,1.7-1.5,2.2h1.6v0.8h-2.9V7.7z"/>
	<path class="st0" d="M36.2,4.2c0.9,0,1.4,0.5,1.4,1.2c0,0.6-0.3,0.9-0.6,1v0c0.4,0.1,0.7,0.5,0.7,1c0,0.7-0.5,1.2-1.4,1.2
		c-0.9,0-1.5-0.4-1.5-1.4h1c0,0.3,0.2,0.6,0.6,0.6c0.3,0,0.5-0.2,0.5-0.5c0-0.4-0.2-0.5-0.7-0.5h-0.2V5.9H36c0.3,0,0.7-0.1,0.7-0.5
		c0-0.3-0.2-0.4-0.4-0.4c-0.3,0-0.4,0.2-0.5,0.5h-1C34.8,4.7,35.4,4.2,36.2,4.2z"/>
</g>
<g>
	<g>
		<path class="st0" d="M59.3,7.6c0,0.7,0,1.4,0,2.1c0,0.8,1.3,0.8,1.3,0c0-0.7,0-1.4,0-2.1C60.6,6.8,59.3,6.8,59.3,7.6L59.3,7.6z"/>
	</g>
</g>
</svg>
